<?xml version="1.0" encoding="utf-8"?>
<!-- Generator: Adobe Illustrator 21.0.0, SVG Export Plug-In . SVG Version: 6.00 Build 0)  -->
<svg version="1.1" id="Calque_1" xmlns="http://www.w3.org/2000/svg" xmlns:xlink="http://www.w3.org/1999/xlink" x="0px" y="0px"
	 viewBox="0 0 200 200" style="enable-background:new 0 0 200 200;" xml:space="preserve">
<style type="text/css">
	.st0{fill:#DE63FC;stroke:#000000;stroke-miterlimit:10;}
</style>
<path class="st0" d="M82.5,176.7c-13.7-0.3-27.2-10.9-34.9-24.3c-7.7-13.3-9.7-29.4-10.1-46s0.8-33.5,9.8-43.5
	c9-10.2,25.7-13.4,42.4-20.3c16.6-6.8,33.4-17,47.8-14.9c14.5,2.1,26.8,16.8,31.8,32.2c5,15.5,2.8,31.7-0.4,45.8
	c-3.2,14.1-7.1,25.9-14.7,34.1c-7.6,8.2-18.7,12.6-31.3,19.8C110.3,166.9,96.3,176.9,82.5,176.7z"/>
<image style="overflow:visible;" width="433" height="577" xlink:href="../../../../../Desktop/Portfolio web 2022/photo1.png"  transform="matrix(0.3263 0 0 0.3263 24.6975 -11.5793)">
</image>
</svg>
