<?xml version="1.0" encoding="utf-8"?>
<!-- Generator: Adobe Illustrator 21.0.0, SVG Export Plug-In . SVG Version: 6.00 Build 0)  -->
<svg version="1.1" id="Calque_1" xmlns="http://www.w3.org/2000/svg" xmlns:xlink="http://www.w3.org/1999/xlink" x="0px" y="0px"
	 viewBox="0 0 500 500" style="enable-background:new 0 0 500 500;" xml:space="preserve">
<style type="text/css">
	.st0{fill:#FCFBFB;}
	.st1{fill:#FEA8A8;}
</style>
<path d="M68,102c0-0.7,0-1.3,0-2c1.7-0.8,1.3-2.6,1.6-3.9c4.2-17.4,15.3-26.8,33.3-28.2c0.3,0,0.7,0.1,1,0.1c97.1,0,194.3,0,291.4,0
	c1.6,0,3.4,0.5,4.7-1c0.3,0,0.7,0,1,0c0.7,1.6,2.3,0.9,3.5,1.2c16.2,3.1,26.1,12.6,29.4,28.8c0.2,1-0.3,2.4,1.2,3c0,1,0,2,0,3
	c-1.5,1.7-1,3.8-1,5.8c0,69.2,0,138.3,0,207.5c0,2-0.4,4,1,5.8c0,1.3,0,2.7,0,4c-1.7,1.4-1.4,3.6-1.9,5.4
	c-3.4,12.9-11.4,21.1-24.2,24.6c-5.2,1.4-10.4,2-15.8,1.9c-16.1,0-32.3,0-48.4,0c-17,0-33.9-0.1-50.9-0.2c-4.2,0-7,1.2-6.5,6
	c0.8,7,0.7,13.9,0,20.9c-0.4,3.9,1.7,5.9,5.5,6.1c1.8,0.1,3.7,0.1,5.5,0.2c17.8,1.6,32.2,17.1,31.9,34.4c-0.1,4.8-2,7.6-7,7.7
	c-46,0-91.9-0.1-137.9-0.1c-1.5,0-3,0-4.3,1c-0.7,0-1.3,0-2,0c-6.3-4.1-7.2-6.4-5.6-14.1c3.6-17.4,16.9-28.5,35-29.1
	c6.7-0.2,7.8-1.4,7.4-8.1c-0.3-5.5-0.5-11,0-16.5c0.6-7.5-0.4-8.5-7.8-8.4c-19.8,0-39.6,0.1-59.4,0.1c-14.3,0-28.6,0.3-42.9-0.2
	C85,357,73.8,347.4,69.2,327.5c-0.2-0.9,0.1-2.1-1.2-2.5c0-0.7,0-1.3,0-2c1.6-1.7,1-3.8,1-5.7c0-70,0-140.1,0-210.1
	C69,105.4,69.6,103.5,68,102z M251.8,81.8c-48.3,0-96.7,0-145,0c-15.7,0-23.9,8-23.9,23.5c-0.1,58.5,0,117-0.1,175.5
	c0,4.8,1.9,6.3,6.2,5.9c6.1-0.6,12.3-0.8,18.4-0.1c7.2,0.8,8.6-0.6,8.6-7.8c0-31.2,0-62.3-0.1-93.5c0-4.9,0.8-9.5,3.1-14
	c8.3-16.5,16.6-33,24.8-49.5c1.7-3.4,3.5-6.8,7.8-6.7c4.3,0,6.1,3.5,7.8,6.9c8.1,16.2,16.3,32.4,24.4,48.6c2.4,4.7,3.4,9.6,3.3,14.9
	c-0.1,31.5-0.1,63-0.1,94.5c0,5.7,1,6.9,6.7,6.6c7.1-0.3,14.3-0.6,21.4,0c7.5,0.6,7.8,0,8.1-7.5c0.1-3,0.4-6,0.5-9
	c0.5-19,2.1-37.9,5.1-56.6c0.7-4.2,0.6-8.1-2.5-11.7c-11.1-13.1-12-27-3.6-42c7.4-13.2,14.9-26.4,22.7-39.4c4.9-8.2,9.9-8.2,14.8,0
	c7.6,12.7,15.1,25.4,22.1,38.5c9.7,18.2,8.3,30.2-5.4,45.4c-2,2.2-3.1,4.7-2.6,7.7c3.8,22.4,4.7,45,5.6,67.6
	c0.3,6.5,1.1,7.5,7.8,6.9c5.3-0.5,10.7-0.7,16-0.3c12.5,1,12.6,1,12.6-11.6c-0.1-49.3-0.1-98.6-0.1-148c0-9.9,1.9-11.7,11.6-11.7
	c16,0,32,0,48,0c10,0,11.5,1.5,11.5,11.6c0,50.2,0,100.3,0,150.5c0,1.3,0,2.7,0,4c0,3.9,2.1,6,5.9,5.6c7.3-0.7,14.6-0.8,21.9,0
	c3.4,0.4,5.3-1.6,5.6-5c0.2-1.8,0.1-3.7,0.1-5.5c0-53,0-106,0-159c0-5.2-0.3-10.3-0.6-15.4c-0.9-11.8-8.4-19.2-20.3-19.9
	c-2.5-0.2-5-0.2-7.5-0.2C345.4,81.8,298.6,81.8,251.8,81.8z M252.2,300.8c-51.6,0-103.3,0-154.9,0c-2.5,0-5,0-7.5,0.2
	c-3.6,0.3-6,2.1-6.4,5.8c-0.7,7.5-1.1,14.9,1.2,22.3c2.1,6.5,6.5,10.7,13,12.7c5.2,1.6,10.5,1.6,15.8,1.6c49.3,0,98.6,0.1,147.9,0
	c45.6,0,91.3-0.1,136.9-0.3c12.3-0.1,21-8.6,21.7-20.9c0.3-5.1,0.2-10.3,0.3-15.5c0.1-3.6-1.4-5.5-5.2-6c-4.4-0.6-8.6,0.1-13,0.1
	C352.2,300.8,302.2,300.8,252.2,300.8z M330,207.8c0,24,0,48,0,72c0,6,1,6.8,6.9,7.2c5.3,0.4,10.6-1.4,15.9-0.5
	c5.5,0.9,11,0.3,16.5,0.4c1.2,0,2.6,0,3.1-1.2c1.4-3.6,1.8-7.4,0.6-11.2c-1.1-3.6-4-2.2-6.2-2.5c-4.7-0.6-8.1-3.8-7.6-7.7
	c0.6-4.3,3-6.4,7.6-6c4.7,0.4,6.6-2.3,6.5-6.7c-0.1-4.3-0.2-8.7-0.2-13c0.2-8.4,0.2-8.3-8-9.8c-4.1-0.7-6.1-3.5-5.8-7.5
	c0.3-3.7,2.2-6.1,6.5-5.9c6.3,0.3,8.3-2.1,7.6-8.5c-0.1-1.3-0.4-2.7-0.3-4c0.5-8.7,0.5-8.7-8.2-10.1c-4-0.6-5.9-3.2-5.7-6.9
	c0.2-3.4,1.8-5.9,5.8-6.1c7.7-0.5,8.8-2,8.1-9.5c-0.2-1.7-0.2-3.3-0.2-5c0-7.5,0-7.6-7.3-8.2c-4.3-0.3-6.4-2.8-6.4-6.8
	c0-3.8,2.1-6.1,6.2-6.4c7.6-0.7,7.6-0.8,7.6-8.7c0-5.9-0.4-6.3-6.6-6.3c-9.7,0-19.3,0-29,0c-6.7,0-7.5,0.7-7.5,7.4
	C330,160.1,330,183.9,330,207.8z M274.1,178.7c0.2-2.9-0.4-6-2.1-9.1c-5.7-10.3-11.5-20.6-17.1-31c-1.7-3.1-2.9-2.5-4.3,0.2
	c-5.8,10.5-11.8,20.8-17.3,31.5c-4.2,8.1-2.5,16.3,3.7,23c5.9,6.3,15.7,8.5,23.9,5.3C268.8,195.5,274.1,187.7,274.1,178.7z
	 M252,419.2c19.5,0,38.9-0.1,58.4,0.1c3.6,0,4.1-0.9,2.2-3.8c-4.2-6.3-9.8-10.4-17.7-10.4c-29.1,0-58.2,0-87.4,0
	c-6.9,0-12,3.3-15.7,9c-0.9,1.3-2.4,2.9-1.4,4.5c0.8,1.4,2.7,0.6,4.2,0.6C213.7,419.2,232.9,419.2,252,419.2z M251.3,357.6
	c0,0,0,0.1,0,0.1c-5.3,0-10.6,0.1-15.9,0c-3.7-0.1-5.5,1.4-5.4,5.3c0.2,7.6,0.1,15.3,0,22.9c0,3.6,1.7,5.1,5.2,5.1
	c11,0,21.9,0,32.9,0c3.5,0,5.2-1.6,5.1-5.2c-0.1-7.6-0.1-15.3,0-22.9c0.1-3.9-1.9-5.3-5.5-5.3C262.2,357.6,256.8,357.6,251.3,357.6z
	 M144.2,236.7c0-14.8,0-29.6,0-44.4c0-5.9-0.1-5.8-8.9-6.1c-4.4-0.1-5.3,2.3-5.3,6c0,29.4,0,58.9,0,88.3c0,5.4,0.5,5.4,8.9,5.8
	c4.4,0.2,5.3-1.8,5.3-5.7C144.1,265.9,144.2,251.3,144.2,236.7z M158.8,236.5c0,14.5,0,28.9,0,43.4c0,6.1,0.2,5.8,7.8,6.3
	c4.9,0.3,6.5-1.6,6.4-6.3c-0.1-29.1,0-58.2-0.1-87.3c0-5.9-0.9-6.4-8.9-6.4c-4.7,0-5.4,2.6-5.3,6.5
	C158.9,207.2,158.8,221.9,158.8,236.5z M252.4,257.9C252.4,258,252.4,258,252.4,257.9c2.3,0.1,4.7-0.1,7,0.1c4.6,0.4,5.9-2,5.5-6.1
	c-0.4-3.3-0.5-6.6-1-9.9c-1-7.4-1-14.9-2.8-22.2c-0.8-3.1-2.5-5.1-5.6-5.6c-2.6-0.5-5.3-0.8-7.9-1c-3.5-0.4-5.2,1.2-5.6,4.8
	c-0.9,8.6-1.9,17.2-2.9,25.8c-1.6,14.1-1.5,14.3,12.7,14.3C252.1,257.9,252.2,257.9,252.4,257.9z M151.5,137.3
	c-5.6,11.2-10.6,21.2-15.5,31.1c-1.2,2.4-0.4,3.4,2.1,3.4c9,0,17.9,0,26.9,0c2,0,3.4-0.7,2.2-3C162.2,158.7,157.2,148.7,151.5,137.3
	z"/>
<path class="st0" d="M102.9,67.9c-18.1,1.3-29.1,10.8-33.3,28.2c-0.3,1.3,0.2,3.1-1.6,3.9c0-10.2,0.1-20.3-0.1-30.5
	c0-2.2,0.4-2.6,2.6-2.6C81.3,67.1,92.2,67,103,67C103,67.3,103,67.6,102.9,67.9z"/>
<path class="st0" d="M435,100c-1.5-0.6-1-1.9-1.2-3c-3.3-16.2-13.1-25.8-29.4-28.8c-1.2-0.2-2.7,0.4-3.5-1.2
	c10.4,0,20.8,0.1,31.3-0.1c2.3,0,2.8,0.4,2.8,2.8C434.9,79.8,435,89.9,435,100z"/>
<path class="st1" d="M102.9,67.9c0.1-0.3,0.1-0.6,0.1-0.9c99,0,198,0,297,0c-1.3,1.4-3.1,1-4.7,1c-97.1,0-194.3,0-291.4,0
	C103.6,68,103.2,67.9,102.9,67.9z"/>
<path d="M68,102c1.6,1.5,1,3.4,1,5.2c0,70,0,140.1,0,210.1c0,1.9,0.6,4-1,5.7C68,249.3,68,175.7,68,102z"/>
<path d="M435,322c-1.4-1.7-1-3.8-1-5.8c0-69.2,0-138.3,0-207.5c0-1.9-0.5-4,1-5.8C435,176,435,249,435,322z"/>
<path d="M323.2,433.1c-0.1,0.3-0.1,0.6-0.2,0.9c-47.3,0-94.7,0-142,0c1.3-1,2.8-1,4.3-1C231.3,433.1,277.2,433.1,323.2,433.1z"/>
</svg>
