<svg id="Calque_1" data-name="Calque 1" xmlns="http://www.w3.org/2000/svg" viewBox="0 0 500 500"><defs><style>.cls-1{fill:#fcfbfb;}.cls-2{fill:#fea8a8;}</style></defs><title>Plan de travail 1</title><path d="M68,102v-2c1.74-.8,1.27-2.6,1.58-3.92,4.2-17.44,15.26-26.85,33.32-28.2a8.48,8.48,0,0,0,1,.11q145.7,0,291.39,0c1.6,0,3.37.46,4.71-1h1c.74,1.62,2.29.95,3.48,1.17C420.7,71.26,430.54,80.79,433.83,97c.21,1-.3,2.42,1.17,3v3c-1.5,1.72-1,3.81-1,5.75q0,103.74,0,207.48c0,2-.45,4,1,5.77v4c-1.65,1.45-1.42,3.59-1.9,5.43-3.39,12.86-11.38,21.13-24.23,24.65A59.11,59.11,0,0,1,393.08,358c-16.14,0-32.28,0-48.43,0q-25.46,0-50.92-.17c-4.15,0-7,1.25-6.48,6a99.22,99.22,0,0,1,0,20.9c-.39,3.91,1.69,5.88,5.53,6.09,1.83.1,3.66.06,5.48.23,17.81,1.61,32.16,17.14,31.94,34.38-.06,4.81-2,7.57-7,7.73l-137.9-.1c-1.5,0-3,0-4.29,1h-2c-6.29-4.07-7.21-6.38-5.61-14.07,3.63-17.43,16.9-28.47,35-29.1,6.74-.23,7.84-1.36,7.43-8.08a118.73,118.73,0,0,1,0-16.45c.57-7.45-.38-8.45-7.8-8.44-19.81,0-39.62.13-59.43.14-14.32,0-28.65.33-42.95-.21C85,357,73.84,347.43,69.17,327.5c-.21-.91.09-2.07-1.17-2.5v-2c1.61-1.68,1-3.79,1-5.7Q69,212.23,69,107.17C69,105.43,69.64,103.47,68,102ZM251.78,81.84q-72.49,0-145,0c-15.75,0-23.92,8-23.94,23.5-.06,58.49,0,117-.12,175.47,0,4.84,1.95,6.26,6.23,5.85a87.57,87.57,0,0,1,18.42-.06c7.16.82,8.6-.6,8.59-7.76q0-46.74-.1-93.48a30.05,30.05,0,0,1,3.06-14q12.47-24.72,24.78-49.53c1.69-3.39,3.54-6.79,7.83-6.74s6.06,3.49,7.76,6.87q12.18,24.31,24.45,48.58a32.31,32.31,0,0,1,3.34,14.92Q187,232.75,187,280c0,5.7,1,6.86,6.67,6.65a188.9,188.9,0,0,1,21.42,0c7.52.57,7.83,0,8.07-7.45.1-3,.43-6,.51-9a429.25,429.25,0,0,1,5.1-56.61c.67-4.19.57-8.09-2.51-11.71-11.07-13.07-12-27-3.59-42,7.4-13.21,14.91-26.35,22.65-39.36,4.87-8.17,9.9-8.19,14.81,0,7.62,12.69,15.14,25.44,22.07,38.53,9.66,18.25,8.32,30.16-5.36,45.42-2,2.24-3.14,4.66-2.62,7.7,3.79,22.36,4.69,45,5.59,67.57.26,6.5,1.14,7.54,7.77,6.86a88.29,88.29,0,0,1,16-.31c12.5,1,12.62,1,12.6-11.59q-.08-74-.15-148c0-9.93,1.87-11.74,11.61-11.75h48c10,0,11.46,1.52,11.46,11.64q0,75.24,0,150.48,0,2,0,4c0,3.95,2.1,6,5.94,5.63a106,106,0,0,1,21.9,0c3.38.37,5.31-1.6,5.63-5,.17-1.82.14-3.66.14-5.49q0-79.49,0-159c0-5.15-.26-10.31-.63-15.45-.87-11.85-8.37-19.15-20.29-19.9-2.49-.16-5-.18-7.49-.18Zm.46,219H97.34c-2.5,0-5,0-7.49.22-3.59.27-6,2.14-6.4,5.81-.74,7.47-1.1,14.95,1.24,22.26,2.09,6.54,6.55,10.67,13,12.72,5.16,1.64,10.52,1.58,15.83,1.59q73.95.06,147.9,0,68.45-.07,136.89-.35c12.34-.06,21-8.58,21.65-20.88.27-5.15.15-10.31.27-15.47.08-3.6-1.45-5.49-5.16-6-4.35-.57-8.64.09-13,.08Q327.18,300.81,252.23,300.85ZM330,207.77q0,36,0,72c0,6,1,6.78,6.89,7.19,5.34.38,10.57-1.37,15.91-.49s11,.29,16.45.38c1.17,0,2.62,0,3.09-1.2a16.55,16.55,0,0,0,.62-11.2c-1.08-3.57-4-2.19-6.24-2.46-4.66-.56-8.07-3.81-7.56-7.68.56-4.28,3-6.36,7.59-6s6.63-2.25,6.54-6.73-.25-8.66-.17-13c.16-8.36.21-8.32-8-9.76-4.12-.72-6.1-3.53-5.78-7.47.3-3.66,2.21-6.11,6.53-5.89,6.28.32,8.34-2.09,7.62-8.46a23.46,23.46,0,0,1-.27-4c.52-8.72.54-8.72-8.22-10.06-4-.61-5.87-3.19-5.7-6.94.16-3.44,1.81-5.87,5.83-6.15,7.72-.54,8.85-2,8.12-9.54-.16-1.65-.2-3.33-.2-5,0-7.53,0-7.62-7.35-8.2-4.33-.34-6.44-2.78-6.39-6.77,0-3.76,2.12-6.06,6.2-6.44,7.58-.71,7.57-.81,7.58-8.68,0-5.95-.44-6.33-6.58-6.3q-14.49.06-29,0c-6.69,0-7.49.67-7.49,7.38Q330,172,330,207.77Zm-55.9-29.1a16,16,0,0,0-2.08-9.05c-5.74-10.32-11.48-20.63-17.14-31-1.67-3.06-2.88-2.47-4.32.15-5.76,10.49-11.82,20.83-17.3,31.47-4.15,8.05-2.51,16.3,3.71,23a22.14,22.14,0,0,0,23.87,5.32A21.21,21.21,0,0,0,274.11,178.67ZM252,419.16c19.47,0,38.95-.06,58.42.05,3.58,0,4.11-.9,2.15-3.82-4.24-6.33-9.76-10.37-17.66-10.38q-43.69,0-87.37,0c-6.91,0-12,3.32-15.71,9-.86,1.33-2.39,2.87-1.43,4.48.82,1.37,2.75.64,4.17.65Q223.29,419.19,252,419.16Zm-.71-61.57v.12c-5.31,0-10.63.09-15.94,0-3.74-.09-5.46,1.37-5.38,5.27.16,7.64.1,15.29,0,22.93,0,3.61,1.68,5.12,5.16,5.11q16.45,0,32.9,0c3.5,0,5.16-1.63,5.13-5.18-.06-7.64-.11-15.28,0-22.92.07-3.94-1.9-5.32-5.48-5.31C262.24,357.6,256.76,357.59,251.29,357.59ZM144.16,236.67q0-22.2,0-44.41c0-5.93-.07-5.81-8.89-6.06-4.45-.13-5.29,2.29-5.28,6q.06,44.15,0,88.3c0,5.38.49,5.44,8.9,5.76,4.42.17,5.34-1.79,5.3-5.66C144.09,265.94,144.16,251.3,144.16,236.67Zm14.67-.15q0,21.71,0,43.42c0,6.06.16,5.85,7.76,6.26,4.91.26,6.47-1.59,6.45-6.27-.11-29.11,0-58.22-.07-87.32,0-5.95-.9-6.4-8.87-6.44-4.69,0-5.35,2.59-5.32,6.45C158.9,207.24,158.84,221.88,158.84,236.51Zm93.55,21.42V258c2.33,0,4.68-.15,7,0,4.59.35,5.92-2,5.48-6.11-.36-3.3-.54-6.63-1-9.92-1-7.41-1-14.93-2.82-22.24-.75-3.09-2.46-5.06-5.58-5.6-2.62-.46-5.27-.75-7.92-1-3.49-.37-5.2,1.24-5.56,4.76-.86,8.6-1.86,17.18-2.86,25.77-1.64,14.06-1.46,14.29,12.73,14.29ZM151.51,137.34c-5.61,11.24-10.56,21.17-15.54,31.08-1.19,2.37-.42,3.42,2.11,3.42q13.45,0,26.91,0c2,0,3.36-.67,2.19-3C162.18,158.73,157.15,148.66,151.51,137.34Z"/><path class="cls-1" d="M102.91,67.89c-18.06,1.35-29.12,10.76-33.32,28.2-.32,1.32.15,3.12-1.58,3.92,0-10.17.08-20.33-.07-30.5,0-2.15.41-2.59,2.57-2.57,10.83.14,21.67.07,32.5.07A2.63,2.63,0,0,1,102.91,67.89Z"/><path class="cls-1" d="M435,100c-1.47-.56-1-1.94-1.17-3-3.29-16.24-13.13-25.77-29.35-28.85-1.19-.23-2.74.45-3.48-1.17,10.42,0,20.85.09,31.27-.07,2.34,0,2.85.44,2.81,2.8C434.9,79.82,435,89.91,435,100Z"/><path class="cls-2" d="M102.91,67.89A2.63,2.63,0,0,0,103,67H400c-1.34,1.43-3.11,1-4.71,1q-145.7,0-291.39,0A8.48,8.48,0,0,1,102.91,67.89Z"/><path d="M68,102c1.64,1.47,1,3.43,1,5.17Q69,212.23,69,317.3c0,1.92.65,4-1,5.7Z"/><path d="M435,322c-1.42-1.74-1-3.82-1-5.77q0-103.74,0-207.48c0-1.94-.54-4,1-5.75Z"/><path d="M323.19,433.12q-.11.44-.19.88H181c1.27-1,2.79-1,4.29-1Z"/></svg>