<?xml version="1.0" encoding="utf-8"?>
<!-- Generator: Adobe Illustrator 21.0.0, SVG Export Plug-In . SVG Version: 6.00 Build 0)  -->
<svg version="1.1" id="Calque_1" xmlns="http://www.w3.org/2000/svg" xmlns:xlink="http://www.w3.org/1999/xlink" x="0px" y="0px"
	 viewBox="0 0 500 500" style="enable-background:new 0 0 500 500;" xml:space="preserve">
<path d="M309,59c3,0,6,0,9,0c1,1.6,2.8,1.6,4.3,2.1c30.5,9.3,61,18.5,91.4,28c10.2,3.2,21.1,4.8,30.3,10.9c0,62,0,124,0,186
	c-1.5-0.3-2.4,0.9-3.6,1.5c-5.8,2.9-10.6,0.3-11.3-6.2c-0.2-1.8-0.1-3.7-0.1-5.5c0-52.5,0.1-104.9,0.2-157.4c0-8.6-0.5-9.3-8.9-11.9
	c-19.2-5.8-38.5-11.6-57.7-17.5c-11.3-3.4-22.5-6.9-33.8-10.4c-7.4-2.3-8-1.8-8,6c0,1.2,0,2.3,0,3.5c0.1,67.5,0.1,134.9,0.2,202.4
	c0,31.5,0,63-0.2,94.4c0,5,1.6,8.3,6.5,9.8c32.3,9.7,64.5,19.4,96.7,29.3c4.6,1.4,5.1,0.1,5.1-4c-0.2-22.5-0.1-45-0.1-67.5
	c0-10.1,4.7-12.7,13.6-7.8c0.4,0.2,1,0.2,1.4,0.2c0,31.3,0,62.7,0,94c-1.7,1.3-3.3,2.7-5,4c-2.3,0-4.7,0-7,0
	c-1.2-1.7-3.1-1.7-4.8-2.2c-35.3-10.8-70.5-21.6-105.8-32.5c-5.3-1.6-10.4-1.6-15.7,0c-11.6,3.6-23.2,7.2-34.8,10.7
	c-26,8-52,16-78,24c-2,0-4,0-6,0c-1.2-1.4-3-1.4-4.5-1.8c-36.9-11.3-73.8-22.5-110.7-33.7c-10.7-3.3-12-5-12-16.3
	c0.1-58,0.1-115.9,0.2-173.9c0-48.5-0.1-96.9-0.2-145.4c0-4.8,0.6-9.3,4.2-12.9c3,0,6,0,9,0c0.4,1.2,1.6,1,2.5,1.3
	C108.1,71,141.1,80.2,173.2,92c11.9,4.3,23.9,3.8,35.7-0.5c20.7-7.4,41.6-13.9,62.7-20.2C284.2,67.6,296.9,64.1,309,59z M75,234.1
	c-0.1,0-0.1,0-0.2,0c0,50.5,0.1,101-0.1,151.5c0,5.5,1.9,7.9,7,9.4c32,9.5,63.9,19.2,95.8,29c4.3,1.3,5.5,0.8,5.5-4.1
	c-0.1-101,0-202,0.1-302.9c0-7.4-0.3-7.8-7.6-10c-31.8-9.7-63.6-19.2-95.3-29.1c-4.8-1.5-5.4-0.2-5.4,4.2
	C75.1,132.8,75,183.4,75,234.1z M306.2,233.5c-0.1,0-0.1,0-0.2,0c0-50.6,0-101.3,0.1-151.9c0-4.2-0.8-4.9-5-3.7
	c-31.3,9.6-62.6,19-93.9,28.4c-8.7,2.6-9.4,3.5-9.4,12.5c0.1,97.1,0.1,194.2,0.2,291.4c0,3.3,0.2,6.7-0.1,10
	c-0.4,4.5,0.9,5.3,5.2,3.9c31.1-9.6,62.2-18.9,93.4-28.3c9-2.7,9.6-3.5,9.6-12.9C306.2,333.1,306.2,283.3,306.2,233.5z"/>
<path d="M444,319c-1.2,0.9-2.3,1.9-3.5,2.7c-3.6,2.3-6.9,1.8-9.7-1.4c-2.8-3.1-2.7-7.3,0.4-10.2c3.1-3,6.4-3.1,9.8-0.6
	c1.1,0.8,2,1.7,3,2.5C444,314.3,444,316.7,444,319z"/>
<path d="M439,443c1.7-1.3,3.3-2.7,5-4C445.2,443.9,441.7,443,439,443z"/>
<path d="M414,355.5c0,11.3,0.1,22.7,0,34c-0.2,9.1-3.7,11.5-12.5,8.8c-16.1-4.9-32.1-9.9-48.1-14.8c-3.5-1.1-7-2.1-10.5-3.2
	c-4.5-1.4-6.9-4.5-6.9-9.3c0-23.8,0-47.6,0.2-71.5c0.1-6.7,4.2-9.2,11.6-7.1c6.1,1.7,12.1,3.7,18.1,5.6c13,4,26.1,8,39.1,12
	c7.6,2.4,9.3,4.7,9.3,12.6c0,5.5-0.1,11-0.2,16.5C414,344.5,414,350,414,355.5C414,355.5,414,355.5,414,355.5z M399,353.4
	c0,0,0.1,0,0.1,0c0-8.2-0.1-16.3,0-24.5c0.1-3.6-1.6-5.6-4.8-6.6c-12.7-3.9-25.4-7.8-38.1-11.8c-3.6-1.1-5.3-0.3-5.3,3.8
	c0.1,16,0.1,32,0,48c0,3.6,1.6,5.5,4.9,6.5c12.9,3.9,25.8,7.8,38.6,11.9c3.3,1.1,4.8,0.7,4.7-3.3C398.8,369.4,399,361.4,399,353.4z"
	/>
<path d="M414,168.5c0,11.5,0.1,23,0,34.5c-0.1,7.6-3.7,10.4-11,8.2c-19.9-5.9-39.8-12.1-59.6-18.2c-5.1-1.6-7.5-5.1-7.5-10.5
	c0.1-23.1,0.1-46.3,0.2-69.4c0-7.5,3.7-10.3,11.1-8.2c19.9,5.9,39.8,12,59.6,18.1c5.1,1.6,7.5,5.2,7.4,10.5c-0.1,11.7,0,23.3,0,35
	C414.1,168.5,414.1,168.5,414,168.5z M399,165.5c0,0,0.1,0,0.1,0c0-7.8-0.1-15.6,0-23.5c0.1-3.9-1.2-6.1-5.1-7.3
	c-12.7-3.8-25.4-7.8-38.1-11.9c-4-1.3-5.1,0.2-5.1,3.9c0,16.1,0.1,32.3,0,48.4c0,3.3,1.4,5.1,4.7,6c13.1,3.8,26.1,7.8,39.1,12
	c3.4,1.1,4.5,0.3,4.4-3.2C398.9,181.8,399,173.6,399,165.5z"/>
<path d="M344.7,255.6c1.2,0.3,3,0.7,4.7,1.2c18.6,5.7,37.1,11.5,55.7,17.2c0.8,0.2,1.6,0.5,2.4,0.8c5.3,1.9,7.8,5.8,6.3,10.2
	c-1.3,3.8-6.1,5.8-10.8,4.3c-19.9-6.1-39.7-12.2-59.5-18.4c-6.1-1.9-8.1-4.4-7.3-9C336.8,257.6,339.7,255.3,344.7,255.6z"/>
<path d="M345.7,218.2c2.9,0.9,7.3,2.3,11.8,3.7c15.6,4.8,31.1,9.6,46.7,14.3c1.6,0.5,3.2,1,4.7,1.6c4.2,1.8,6.2,5.8,4.8,9.7
	c-1.2,3.5-5.7,5.8-9.8,4.5c-14.8-4.5-29.5-9.1-44.3-13.7c-6.3-2-12.7-3.8-19-6.1c-4-1.4-5.5-4.7-4.3-8.8
	C337.4,219.7,339.9,217.6,345.7,218.2z"/>
<path d="M98.2,319.9c0.9,0.2,2.3,0.6,3.7,1c19.2,5.9,38.4,11.8,57.7,17.8c1.4,0.4,2.9,0.9,4.2,1.6c3.5,1.9,5.1,4.9,3.9,8.8
	c-1.2,4-4.3,5.9-8.5,5.2c-3.3-0.6-6.4-1.6-9.6-2.6c-17.9-5.6-35.9-11.2-53.8-16.8c-4.2-1.3-6.6-3.9-5.8-8.5
	C90.7,322.2,93.4,320.1,98.2,319.9z"/>
<path d="M168,307c-0.1,8-4.2,11.3-10.2,9.6c-10.2-2.9-20.3-6.3-30.5-9.4c-10-3.1-20-6.1-30-9.2c-6.1-1.9-8.4-5.3-7-10.1
	c1.3-4.6,5.5-6.3,11.4-4.5c19.4,5.9,38.8,11.8,58.2,17.9C163.8,302.4,167.9,303.8,168,307z"/>
<path d="M98.5,357.6c1,0.2,2.5,0.4,3.9,0.9c18.9,5.8,37.8,11.6,56.7,17.5c7.5,2.3,10.1,5.6,8.7,10.5c-1.5,5.1-5.9,6.5-13.2,4.2
	c-19-5.9-38.1-11.7-57.1-17.7c-6.7-2.1-8.7-5.3-7-10.4C91.7,358.9,94.1,357.4,98.5,357.6z"/>
<path d="M144,143.5c-0.8-0.2-2.3-0.4-3.7-0.8c-9.9-3.2-19.9-6.4-29.8-9.8c-5.2-1.8-6.8-4.9-5.3-9.5c1.4-4.4,4.8-6,9.9-4.5
	c10.8,3.3,21.5,6.7,32.3,10.1c4.3,1.4,6.3,4.2,5.4,8.7C152,142.1,148.8,143.4,144,143.5z"/>
<path d="M113.8,171.5c-6.2-1.3-12.8-3-18.8-6.2c-2.8-1.5-3.4-4.4-2.7-7.4c0.9-3.7,3.4-6.1,7.1-5.8c7.2,0.5,13.9,3.2,20.1,6.7
	c2.8,1.6,2.7,4.7,1.6,7.6C119.8,169.4,117.8,171.4,113.8,171.5z"/>
<path d="M138.8,173.9c0.1-5.1,4.4-8.7,9.5-7.4c5.4,1.5,10.7,3.4,16,5.5c4,1.6,4.6,5,3.3,8.7c-1.3,3.7-3.8,5.7-8.1,4.8
	c-5.5-1.2-10.9-2.7-16.2-4.8C139.6,179.1,138.8,177.7,138.8,173.9z"/>
<path d="M291.2,297.5c0,12.5,0,25,0,37.5c0,6.9-1.8,9.2-8.3,11.2c-19.2,5.9-38.5,11.8-57.8,17.6c-8.5,2.6-12,0-12.1-8.7
	c-0.1-25-0.1-50-0.2-75c0-7.5,1.6-9.7,8.8-11.9c18.6-5.8,37.2-11.5,55.8-17.2c10.2-3.1,13.6-0.6,13.6,10c0,12.2,0,24.3,0,36.5
	C291.1,297.5,291.1,297.5,291.2,297.5z M276.1,299.6c0,0-0.1,0-0.1,0c0-9.3-0.1-18.6,0.1-27.9c0.1-3.8-1-4.5-4.6-3.4
	c-12.7,4-25.4,7.9-38.1,11.7c-3.9,1.2-5.6,3.3-5.6,7.5c0.2,18.3,0.2,36.6,0.1,54.9c0,4,1.2,4.9,5,3.6c12.5-4,25-7.9,37.6-11.6
	c4.3-1.3,5.8-3.6,5.7-7.9C276,317.6,276.1,308.6,276.1,299.6z"/>
<path d="M253.1,145.8c-3.9-0.3-6.2-2.4-7-6c-0.7-3.3-0.5-6.6,3.3-7.9c10.6-3.7,21.3-7.3,32.1-10.5c4.1-1.2,8.4,1.8,9.4,5.5
	c1.1,4.4-0.6,7.4-5.5,9c-9.6,3.1-19.3,6.1-28.9,9.1C255.3,145.3,254.2,145.6,253.1,145.8z"/>
<path d="M291.1,166.4c0,3.2-1.2,5.6-4.3,6.6c-10.6,3.4-21.2,6.8-31.9,9.9c-4.3,1.2-7.7-1-8.7-5.3c-0.9-4-0.1-7.2,4.4-8.7
	c9.8-3.2,19.5-6.6,29.4-9.6C285.9,157.4,291,160.9,291.1,166.4z"/>
<path d="M291,204.1c0.1,3.3-1.5,5.4-4.5,6.4c-10.6,3.3-21.3,6.6-31.9,9.8c-4.5,1.4-7-1.4-8.3-5.1c-1.3-3.9-0.5-7.2,4.1-8.7
	c10-3.2,19.9-6.7,29.8-9.8C286.1,194.9,291.1,198.5,291,204.1z"/>
<path d="M253.7,389.1c-4.8,0.3-6.8-2.1-7.6-5.7c-0.8-3.6,0-6.8,3.9-8.1c10.2-3.4,20.5-6.9,30.8-10c4.4-1.4,8.8,1.2,10,5.2
	c1.3,4.3-0.4,7.6-5.3,9.2c-9.8,3.2-19.7,6.1-29.5,9.1C255,389,254,389.1,253.7,389.1z"/>
<path d="M228.8,391.9c0,4.4-3.1,7.6-7.5,7.6c-4.7,0-7.5-2.7-7.5-7.4c0-4.8,2.7-7.5,7.3-7.6C225.6,384.5,228.8,387.5,228.8,391.9z"/>
<path d="M228.8,222.7c-0.1,4.5-3.1,7.4-7.7,7.3c-4.6,0-7.3-2.8-7.3-7.6c0-4.5,3.1-7.6,7.5-7.5C225.7,215,228.8,218.3,228.8,222.7z"
	/>
<path d="M228.8,185.8c0,4.4-3.2,7.3-7.7,7.3c-4.7-0.1-7.3-2.8-7.2-7.6c0.1-4.4,2.9-7.1,7.3-7.1C225.5,178.3,228.8,181.6,228.8,185.8
	z"/>
<path d="M228.8,148.4c-0.1,4.5-3.2,7.2-7.9,7.1c-4.7-0.2-7.2-2.9-7-7.7c0.2-4.6,3-7.1,7.9-6.8C225.9,141.2,228.9,144.3,228.8,148.4z
	"/>
</svg>
