<?xml version="1.0" encoding="utf-8"?>
<!-- Generator: Adobe Illustrator 21.0.0, SVG Export Plug-In . SVG Version: 6.00 Build 0)  -->
<svg version="1.1" id="Calque_1" xmlns="http://www.w3.org/2000/svg" xmlns:xlink="http://www.w3.org/1999/xlink" x="0px" y="0px"
	 viewBox="0 0 500 500" style="enable-background:new 0 0 500 500;" xml:space="preserve">
<path d="M252.1,68.3c47.8,0,95.6-0.1,143.5,0.1c5.5,0,11.4,0.9,16.6,2.7c14.2,5.1,20.8,16.3,21.4,30.8c0.7,15,0.3,30,0.3,45
	c0,56,0,112,0,168c0,5.1-0.2,10.4-1.3,15.4c-3.2,15.3-14.8,25.5-30.5,26.3c-15.8,0.8-31.6,1-47.4,1c-18.3,0-36.6-0.4-54.9-0.6
	c-2.5,0-5,0.1-7.5,0.3c-4,0.4-5.8,2.6-5.7,6.7c0.2,6.7,0.1,13.3,0.1,20c0,5.9,1.5,7.4,7.3,7.6c18.6,0.5,31.2,11.1,35.2,29.3
	c1.9,8.6-0.6,12-9.3,12.1c-45.5,0.1-91,0.1-136.5,0c-8.8,0-11.1-3.2-9.3-12.1c3.7-18.1,16.5-28.8,35.1-29.3c5.8-0.2,7.1-1.4,7.2-7
	c0-7-0.1-14,0.1-21c0.1-4-1.7-6.1-5.4-6.2c-4.5-0.1-8.9,0.4-13.4,0.4c-29,0-58,0.1-87,0c-4.5,0-9-0.5-13.3-1.5
	c-17.7-4-27.9-16.4-27.9-34.5c-0.1-72.5-0.1-145,0-217.5c0-21,14.6-35.5,35.7-35.6C154.1,68.3,203.1,68.4,252.1,68.3
	C252.1,68.4,252.1,68.4,252.1,68.3z M251.3,81.6C251.3,81.6,251.3,81.6,251.3,81.6c-5.8-0.1-11.7-0.1-17.5-0.1
	c-42.8,0-85.6,0-128.4,0c-14,0-22.8,8.8-22.8,22.8c0,58.6,0,117.3,0,175.9c0,5.8,1.3,7,7,6.9c9.8-0.3,19.5-0.7,29.3-0.7
	c15.7,0,31.5,0.3,47.2,0.3c12.8,0,25.5-0.3,38.3-0.3c14.4-0.1,28.9,0,43.3,0c23.5,0,47.1-0.1,70.6,0c7.6,0,15.3,0.5,22.9,0.7
	c4,0.1,7.9-0.4,11.9-0.4c5.8,0,11.6,0.3,17.5,0.3c13.9,0,27.9-0.3,41.8-0.1c6.2,0.1,8.2-1.1,8.6-7.4c0.1-1.5,0.1-3,0.1-4.5
	c0-54,0-108,0-161.9c0-4.1-0.3-8.3-0.8-12.4c-1.1-9.8-6.8-16.1-16.6-18.2c-3.2-0.7-6.6-0.9-9.9-0.9
	C346.2,81.6,298.8,81.6,251.3,81.6z M253.7,299.8C253.7,299.8,253.7,299.8,253.7,299.8c-51,0-101.9,0-152.9,0.1
	c-3.6,0-7.3,0.5-10.9,0.7c-5,0.2-7,3.2-7.2,7.8c-0.1,4.5-0.1,9,0,13.5c0.3,11.2,7.6,19.7,18.6,21.3c4.3,0.6,8.6,1,12.9,1
	c91.5,0.1,182.9,0,274.4,0c3.3,0,6.7,0,10-0.3c13-1.1,20.8-8.6,21.9-21.6c0.3-3.6-0.2-7.3,0.1-10.9c0.7-9.8-0.8-11.6-10.4-11.6
	C358,299.8,305.8,299.8,253.7,299.8z M314,419c-2.4-8.6-10.2-14.4-19.5-14.4c-15.5-0.1-31-0.1-46.4-0.1c-13.5,0-27-0.1-40.5,0.1
	c-9.2,0.1-17.2,6.9-17.2,14.4C231.5,419,272.7,419,314,419z M251.5,357.4c0,0.1,0,0.1,0,0.2c-5.3,0-10.6,0.2-16-0.1
	c-4.4-0.2-6,1.7-6,5.9c0.1,7.3,0.1,14.6,0,21.9c0,4.2,1.9,6.1,6.1,6.1c10.6,0,21.3,0,31.9,0c4.2,0,6-2,5.9-6.2
	c-0.1-7.3-0.2-14.6,0-21.9c0.1-4.4-1.9-6-6-5.9C262.1,357.4,256.8,357.4,251.5,357.4z"/>
<path d="M312.5,248.5c-7-0.9-11.4-6.8-9-12.8c0.9-2.2,2.5-4.3,4.2-6.1c9.1-9.3,18.2-18.5,27.5-27.5c2.6-2.6,2.7-4.3,0-6.9
	c-9.8-9.5-19.4-19.2-28.9-29c-5.9-6.1-4-14.9,3.8-16.2c3-0.5,7.1,1.4,9.7,3.4c4.7,3.7,8.6,8.3,12.9,12.5
	c8.1,8.1,16.3,16.2,24.3,24.4c6,6.2,6,10.6,0,16.7c-12,12.2-24.1,24.3-36.4,36.3C318.3,245.6,315.2,246.9,312.5,248.5z"/>
<path d="M166.8,198.6c1.4,1.6,2.5,3,3.8,4.2c8.9,9,17.9,17.9,26.8,26.9c1.7,1.7,3.5,3.8,4.1,6.1c1.1,4,0.5,8.1-3.6,10.5
	c-4,2.3-8.2,2.2-11.5-1.1c-13.4-13.2-26.7-26.5-39.9-39.9c-4.5-4.6-4.1-9.1,0.7-14.1c12.6-12.8,25.4-25.5,38.1-38.2
	c0.1-0.1,0.2-0.2,0.4-0.3c4.9-4.1,10.1-4.2,13.8-0.2c3.5,3.7,3.3,9.7-0.8,13.9c-9.1,9.3-18.3,18.4-27.5,27.6
	C169.7,195.4,168.4,196.8,166.8,198.6z"/>
<path d="M232.7,247.7c-6.5,0.1-10.7-5.5-9-11.9c0.4-1.4,1.1-2.8,1.8-4.1c12.5-25,25-50,37.5-75c3.3-6.5,7.4-8.5,12.7-6.4
	c5.2,2,7.2,6.4,5.4,11.7c-0.5,1.4-1.1,2.8-1.7,4.1c-12.3,24.7-24.7,49.4-37,74.1C240.2,244.2,237.8,247.6,232.7,247.7z"/>
</svg>
